<?xml version="1.0" standalone="no"?>
<!DOCTYPE svg PUBLIC "-//W3C//DTD SVG 20010904//EN"
 "http://www.w3.org/TR/2001/REC-SVG-20010904/DTD/svg10.dtd">
<svg version="1.0" xmlns="http://www.w3.org/2000/svg"
 width="588.000000pt" height="588.000000pt" viewBox="0 0 588.000000 588.000000"
 preserveAspectRatio="xMidYMid meet">

<g transform="translate(0.000000,588.000000) scale(0.100000,-0.100000)"
fill="#000000" stroke="none">
<path d="M3684 4191 c-2 -2 -4 -112 -4 -243 l0 -238 279 0 c245 0 280 -2 285
-16 3 -9 6 -384 6 -835 l0 -819 240 0 240 0 2 833 3 832 280 5 280 5 3 237 2
238 -806 2 c-443 2 -808 1 -810 -1z"/>
<path d="M930 3115 l0 -1075 243 2 242 3 0 1070 0 1070 -242 3 -243 2 0 -1075z"/>
<path d="M1790 3950 l0 -240 810 0 810 0 0 240 0 240 -810 0 -810 0 0 -240z"/>
<path d="M1794 3341 c-2 -2 -4 -105 -4 -227 l0 -224 810 0 810 0 0 227 0 228
-806 0 c-443 0 -808 -2 -810 -4z"/>
<path d="M1792 2282 l3 -227 808 -2 807 -3 0 230 0 230 -810 0 -810 0 2 -228z"/>
</g>
</svg>
